<mxfile host="app.diagrams.net" agent="Mozilla/5.0 (Windows NT 10.0; Win64; x64) AppleWebKit/537.36 (KHTML, like Gecko) Chrome/129.0.0.0 Safari/537.36" version="24.7.17">
  <diagram name="Страница — 1" id="iK6bVSlm0enJN6oppPqb">
    <mxGraphModel dx="1687" dy="878" grid="1" gridSize="10" guides="1" tooltips="1" connect="1" arrows="1" fold="1" page="1" pageScale="1" pageWidth="827" pageHeight="1169" math="0" shadow="0">
      <root>
        <mxCell id="0" />
        <mxCell id="1" parent="0" />
        <mxCell id="bGIjPpI1XRE5mlZsmfDc-6" style="edgeStyle=orthogonalEdgeStyle;rounded=0;orthogonalLoop=1;jettySize=auto;html=1;entryX=0.5;entryY=0;entryDx=0;entryDy=0;" edge="1" parent="1" source="bGIjPpI1XRE5mlZsmfDc-2" target="bGIjPpI1XRE5mlZsmfDc-4">
          <mxGeometry relative="1" as="geometry" />
        </mxCell>
        <mxCell id="bGIjPpI1XRE5mlZsmfDc-2" value="" style="swimlane;startSize=0;" vertex="1" parent="1">
          <mxGeometry x="210" y="80" width="160" height="260" as="geometry" />
        </mxCell>
        <mxCell id="bGIjPpI1XRE5mlZsmfDc-3" value="Main Activity" style="text;html=1;align=center;verticalAlign=middle;resizable=0;points=[];autosize=1;strokeColor=none;fillColor=none;" vertex="1" parent="bGIjPpI1XRE5mlZsmfDc-2">
          <mxGeometry x="35" y="115" width="90" height="30" as="geometry" />
        </mxCell>
        <mxCell id="bGIjPpI1XRE5mlZsmfDc-9" style="edgeStyle=orthogonalEdgeStyle;rounded=0;orthogonalLoop=1;jettySize=auto;html=1;entryX=0.5;entryY=0;entryDx=0;entryDy=0;" edge="1" parent="1" source="bGIjPpI1XRE5mlZsmfDc-4" target="bGIjPpI1XRE5mlZsmfDc-7">
          <mxGeometry relative="1" as="geometry" />
        </mxCell>
        <mxCell id="bGIjPpI1XRE5mlZsmfDc-10" style="edgeStyle=orthogonalEdgeStyle;rounded=0;orthogonalLoop=1;jettySize=auto;html=1;entryX=0.5;entryY=0;entryDx=0;entryDy=0;" edge="1" parent="1" source="bGIjPpI1XRE5mlZsmfDc-4" target="bGIjPpI1XRE5mlZsmfDc-8">
          <mxGeometry relative="1" as="geometry" />
        </mxCell>
        <mxCell id="bGIjPpI1XRE5mlZsmfDc-11" value="Types" style="edgeLabel;html=1;align=center;verticalAlign=middle;resizable=0;points=[];" vertex="1" connectable="0" parent="bGIjPpI1XRE5mlZsmfDc-10">
          <mxGeometry x="-0.7935" y="1" relative="1" as="geometry">
            <mxPoint x="19" as="offset" />
          </mxGeometry>
        </mxCell>
        <mxCell id="bGIjPpI1XRE5mlZsmfDc-4" value="" style="swimlane;startSize=0;" vertex="1" parent="1">
          <mxGeometry x="210" y="440" width="160" height="260" as="geometry" />
        </mxCell>
        <mxCell id="bGIjPpI1XRE5mlZsmfDc-5" value="List Fragment" style="text;html=1;align=center;verticalAlign=middle;resizable=0;points=[];autosize=1;strokeColor=none;fillColor=none;" vertex="1" parent="bGIjPpI1XRE5mlZsmfDc-4">
          <mxGeometry x="30" y="110" width="100" height="30" as="geometry" />
        </mxCell>
        <mxCell id="bGIjPpI1XRE5mlZsmfDc-7" value="Wallpapers From Api" style="swimlane;whiteSpace=wrap;html=1;" vertex="1" parent="1">
          <mxGeometry x="50" y="810" width="160" height="260" as="geometry" />
        </mxCell>
        <mxCell id="bGIjPpI1XRE5mlZsmfDc-8" value="Liked Wallpapers" style="swimlane;whiteSpace=wrap;html=1;" vertex="1" parent="1">
          <mxGeometry x="370" y="810" width="160" height="260" as="geometry" />
        </mxCell>
      </root>
    </mxGraphModel>
  </diagram>
</mxfile>
